0
SECTION
2
HEADER
9
$INSUNITS
70
4
9
$ACADVER
1
AC1014
9
$HANDSEED
5
FFFF
0
ENDSEC
0
SECTION
2
TABLES
0
TABLE
2
VPORT
5
8
100
AcDbSymbolTable
0
ENDTAB
0
TABLE
2
LTYPE
5
5
100
AcDbSymbolTable
0
LTYPE
5
14
100
AcDbSymbolTableRecord
100
AcDbLinetypeTableRecord
2
BYBLOCK
70
0
0
LTYPE
5
15
100
AcDbSymbolTableRecord
100
AcDbLinetypeTableRecord
2
BYLAYER
70
0
0
ENDTAB
0
TABLE
2
LAYER
5
2
100
AcDbSymbolTable
70
2
0
LAYER
5
50
100
AcDbSymbolTableRecord
100
AcDbLayerTableRecord
2
0
70
0
6
CONTINUOUS
0
ENDTAB
0
TABLE
2
STYLE
5
3
100
AcDbSymbolTable
70
1
0
STYLE
5
11
100
AcDbSymbolTableRecord
100
AcDbTextStyleTableRecord
2
STANDARD
70
0
0
ENDTAB
0
TABLE
2
VIEW
5
6
100
AcDbSymbolTable
70
0
0
ENDTAB
0
TABLE
2
UCS
5
7
100
AcDbSymbolTable
70
0
0
ENDTAB
0
TABLE
2
APPID
5
9
100
AcDbSymbolTable
70
2
0
APPID
5
12
100
AcDbSymbolTableRecord
100
AcDbRegAppTableRecord
2
ACAD
70
0
0
ENDTAB
0
TABLE
2
DIMSTYLE
5
A
100
AcDbSymbolTable
70
1
0
ENDTAB
0
TABLE
2
BLOCK_RECORD
5
1
100
AcDbSymbolTable
70
1
0
BLOCK_RECORD
5
1F
100
AcDbSymbolTableRecord
100
AcDbBlockTableRecord
2
*MODEL_SPACE
0
BLOCK_RECORD
5
1B
100
AcDbSymbolTableRecord
100
AcDbBlockTableRecord
2
*PAPER_SPACE
0
ENDTAB
0
ENDSEC
0
SECTION
2
BLOCKS
0
BLOCK
5
20
100
AcDbEntity
100
AcDbBlockBegin
2
*MODEL_SPACE
0
ENDBLK
5
21
100
AcDbEntity
100
AcDbBlockEnd
0
BLOCK
5
1C
100
AcDbEntity
100
AcDbBlockBegin
2
*PAPER_SPACE
0
ENDBLK
5
1D
100
AcDbEntity
100
AcDbBlockEnd
0
ENDSEC
0
SECTION
2
ENTITIES
0
LWPOLYLINE
5
100
100
AcDbEntity
8
0
100
AcDbPolyline
90
8
70
1
43
0.0
10
7.0000000000000009
20
0
42
-0.41421356237309498
10
12.000000000000002
20
-5
10
11.999999999999986
20
-205
42
-0.41421356237309465
10
6.9999999999999929
20
-210
10
-125
20
-210
42
-0.41421356237309398
10
-130
20
-205
10
-130
20
-5
42
-0.41421356237309326
10
-125
20
0
0
CIRCLE
5
101
100
AcDbEntity
8
0
100
AcDbCircle
10
-86.000000000000014
20
-118.79000000000003
30
0
40
1.5000000000000002
210
0
220
-0
230
1
0
CIRCLE
5
102
100
AcDbEntity
8
0
100
AcDbCircle
10
-28.000000000000004
20
-167.79000000000002
30
0
40
1.5000000000000002
210
0
220
-0
230
1
0
CIRCLE
5
103
100
AcDbEntity
8
0
100
AcDbCircle
10
-28.000000000000004
20
-118.79000000000003
30
0
40
1.5000000000000002
210
0
220
-0
230
1
0
CIRCLE
5
104
100
AcDbEntity
8
0
100
AcDbCircle
10
-86.000000000000014
20
-167.79000000000002
30
0
40
1.5000000000000002
210
0
220
-0
230
1
0
CIRCLE
5
105
100
AcDbEntity
8
0
100
AcDbCircle
10
0
20
-75.00000111758709
30
0
40
1.7499999999999993
210
0
220
0
230
1
0
CIRCLE
5
106
100
AcDbEntity
8
0
100
AcDbCircle
10
0
20
-91.000001356005669
30
0
40
1.7500000000000047
210
0
220
0
230
1
0
LWPOLYLINE
5
107
100
AcDbEntity
8
0
100
AcDbPolyline
90
4
70
1
43
0.0
10
-94.000000312924385
20
-18.000000268220901
10
-94.000000312924385
20
-8.0000001192092896
10
-96.000000342726707
20
-8.0000001192092896
10
-96.000000342726707
20
-18.000000268220901
0
LWPOLYLINE
5
108
100
AcDbEntity
8
0
100
AcDbPolyline
90
4
70
1
43
0.0
10
-79.400000312924391
20
-18.000000268220901
10
-79.400000312924391
20
-8.0000001192092896
10
-81.400000342726713
20
-8.0000001192092896
10
-81.400000342726713
20
-18.000000268220901
0
LWPOLYLINE
5
109
100
AcDbEntity
8
0
100
AcDbPolyline
90
4
70
1
43
0.0
10
-64.800000312924396
20
-18.000000268220901
10
-64.800000312924396
20
-8.0000001192092896
10
-66.800000342726719
20
-8.0000001192092896
10
-66.800000342726719
20
-18.000000268220901
0
LWPOLYLINE
5
110
100
AcDbEntity
8
0
100
AcDbPolyline
90
4
70
1
43
0.0
10
-50.200000312924388
20
-18.000000268220901
10
-50.200000312924388
20
-8.0000001192092896
10
-52.20000034272671
20
-8.0000001192092896
10
-52.20000034272671
20
-18.000000268220901
0
LWPOLYLINE
5
111
100
AcDbEntity
8
0
100
AcDbPolyline
90
4
70
1
43
0.0
10
-35.600000312924386
20
-18.000000268220901
10
-35.600000312924386
20
-8.0000001192092896
10
-37.600000342726709
20
-8.0000001192092896
10
-37.600000342726709
20
-18.000000268220901
0
LWPOLYLINE
5
112
100
AcDbEntity
8
0
100
AcDbPolyline
90
4
70
1
43
0.0
10
-23.000000342726707
20
-8.0000001192092896
10
-23.000000342726707
20
-18.000000268220901
10
-21.000000312924385
20
-18.000000268220901
10
-21.000000312924385
20
-8.0000001192092896
0
CIRCLE
5
113
100
AcDbEntity
8
0
100
AcDbCircle
10
-17.540000000000003
20
-93.790000000000035
30
0
40
1.5000000000000002
210
0
220
-0
230
1
0
CIRCLE
5
114
100
AcDbEntity
8
0
100
AcDbCircle
10
-95.010000000000019
20
-93.790000000000035
30
0
40
1.5000000000000002
210
0
220
-0
230
1
0
CIRCLE
5
115
100
AcDbEntity
8
0
100
AcDbCircle
10
-17.540000000000003
20
-42.99000000000003
30
0
40
1.5000000000000002
210
0
220
-0
230
1
0
CIRCLE
5
116
100
AcDbEntity
8
0
100
AcDbCircle
10
-96.280000000000001
20
-42.99000000000003
30
0
40
1.5000000000000002
210
0
220
-0
230
1
0
CIRCLE
5
117
100
AcDbEntity
8
0
100
AcDbCircle
10
4.9999999999999849
20
-203
30
0
40
1.504999999999995
210
0
220
0
230
1
0
ENDSEC
0
SECTION
2
OBJECTS
0
DICTIONARY
5
C
100
AcDbDictionary
3
ACAD_GROUP
350
D
3
ACAD_MLINESTYLE
350
17
0
DICTIONARY
5
D
100
AcDbDictionary
0
DICTIONARY
5
1A
330
C
100
AcDbDictionary
0
DICTIONARY
5
17
100
AcDbDictionary
0
ENDSEC
0
EOF
